<svg version="1.2" xmlns="http://www.w3.org/2000/svg" viewBox="0 0 512 512" width="512" height="512">
	<title>filledx-svg</title>
	<style>
		.s0 { fill: #ffffff } 
	</style>
	<path id="Layer" fill-rule="evenodd" class="s0" d="m0 256c0-141.4 114.6-256 256-256 141.4 0 256 114.6 256 256 0 141.4-114.6 256-256 256-141.4 0-256-114.6-256-256zm175-47.1l47 47-47 47c-9.4 9.3-9.3 24.5 0 33.9 9.3 9.4 24.5 9.4 33.9 0l47-47 47 47c9.3 9.4 24.5 9.3 33.9 0 9.4-9.3 9.4-24.5 0-33.9l-47-47 47-47c9.4-9.3 9.3-24.5 0-33.9-9.3-9.4-24.5-9.4-33.9 0l-47 47-47-47c-9.3-9.4-24.5-9.4-33.9 0-9.4 9.3-9.4 24.5 0 33.9z"/>
</svg>